<svg xmlns="http://www.w3.org/2000/svg" viewBox="0 0 41.03 40"><g id="Слой_2" data-name="Слой 2"><g id="Слой_1-2" data-name="Слой 1"><path d="M41,20.09C41,31.14,31.74,40,20.42,40A20.25,20.25,0,0,1,0,19.91C.05,8.86,9.29,0,20.6,0A20.26,20.26,0,0,1,41,20.09Z" style="fill:#221f1f"/><path d="M27.9,29.9C25.73,33.69,23,36.8,20,36.74a10.07,10.07,0,0,1-5.29-1.81C15.27,34,18.55,29.37,27.9,29.9Zm12.58-9.81A19.71,19.71,0,0,1,20.42,39.45,19.75,19.75,0,0,1,.54,19.91a18.64,18.64,0,0,1,7-14.66c4.16-3.29,7-.77,8,1.14A15.46,15.46,0,0,0,14.1,1.57a19.64,19.64,0,0,1,6.5-1A19.73,19.73,0,0,1,40.48,20.09Zm-21-11.2c2.89-1.92,7.89-3,10.53,1C28.37.75,21.44,6,19.45,8.89Zm-4,8.66a15.28,15.28,0,0,1,2.12-1.92c3.62-2.71,7.57-3.39,8.86-1.5A3.17,3.17,0,0,1,26.55,17c1.28-2.07,1.69-4,.9-5.05-1.33-1.76-5.47-.55-9.24,2.71A17.15,17.15,0,0,0,15.43,17.55Zm-6.3,1.63c1.83.33,3.82-1.94,4.43-5.11s-.37-6-2.2-6.35S7.55,9.66,6.94,12.83,7.3,18.83,9.13,19.18Zm25.43-3.83C17.06,26.79,5,21,5,21c-.18,4,6.8,16.17,15.11,16.32S34.56,15.35,34.56,15.35ZM7.43,12.9C8,10,9.71,7.87,11.27,8.18s2.38,2.89,1.83,5.8-2.28,5-3.84,4.72S6.87,15.81,7.43,12.9Zm3.32,2.47c.7.15,1.47-.68,1.74-1.85s-.09-2.25-.79-2.38c-.47-.11-1,.24-1.33.83a.68.68,0,0,1-.45,1.28C9.78,14.29,10.12,15.22,10.75,15.37Z" style="fill:#05bc52"/></g></g></svg>